<?xml version="1.0" encoding="UTF-8"?>
<svg xmlns="http://www.w3.org/2000/svg" viewBox="0 0 8145.00 2173.00"
     width="750" height="200" role="img" aria-labelledby="ten mo"
     preserveAspectRatio="xMidYMid meet">
  <title id="ten">PROYAKU</title>
  <desc id="mo">Phien dich Viet — Nhat. Pro-Translate.</desc>
  <metadata>
    PROYAKU · Esuhai Group · Sans hiện đại, sai lệch 4,0%
    Chu chinh: InstrumentSans Bold, gian chu +0.0957 em — do tu anh web app.
    Slogan: Instrument Serif dung, rong 83.3% be rong chu, ho doc 0.2553,
    net day 1,25 lan. Da vector hoa hoan toan.
    Mau: chu #4ADE80 · slogan #FB7185
    Sinh ngay 1 thang 8 nam 2026 — Le Long Son
  </metadata>
  <rect width="100%" height="100%" fill="#1C1D22"/>
  <g transform="translate(260.00,260.00)">
    <path id="chu" fill="#4ADE80" d="M0.0 1000.0V0.0H475.0Q586.1111111111111 0.0 665.9722222222222 38.888888888888914Q745.8333333333333 77.77777777777783 789.5833333333333 147.22222222222229Q833.3333333333333 216.66666666666674 833.3333333333333 309.7222222222223Q833.3333333333333 402.7777777777778 788.8888888888889 473.61111111111114Q744.4444444444445 544.4444444444445 664.5833333333333 584.0277777777778Q584.7222222222222 623.6111111111111 475.0 623.6111111111111H169.44444444444446V459.7222222222223H463.8888888888888Q537.5 459.7222222222223 578.4722222222222 418.75000000000006Q619.4444444444445 377.7777777777778 619.4444444444445 311.1111111111111Q619.4444444444445 244.44444444444446 578.4722222222222 204.16666666666669Q537.5 163.8888888888889 463.8888888888888 163.8888888888889H213.88888888888886V1000.0Z M1060.6481481481635 1000.0V0.0H1507.870370370386Q1616.2037037037192 0.0 1696.7592592592746 36.8055555555556Q1777.3148148148302 73.6111111111112 1821.7592592592746 140.27777777777783Q1866.2037037037192 206.94444444444446 1866.2037037037192 295.83333333333337Q1866.2037037037192 383.33333333333337 1821.7592592592746 449.3055555555556Q1777.3148148148302 515.2777777777778 1696.7592592592746 552.0833333333334Q1616.2037037037192 588.8888888888889 1507.870370370386 588.8888888888889H1230.092592592608V431.94444444444446H1502.3148148148302Q1578.7037037037192 431.94444444444446 1619.6759259259416 396.52777777777777Q1660.6481481481637 361.1111111111111 1660.6481481481637 297.2222222222223Q1660.6481481481637 231.94444444444446 1620.370370370386 197.91666666666669Q1580.092592592608 163.8888888888889 1502.3148148148302 163.8888888888889H1274.5370370370524V1000.0ZM1624.5370370370524 1000.0 1223.1481481481635 480.55555555555554H1449.5370370370524L1913.4259259259413 1000.0Z M2611.574074074105 1013.8888888888889Q2500.462962962994 1013.8888888888889 2406.712962962994 976.3888888888889Q2312.962962962994 938.8888888888889 2244.212962962994 870.1388888888889Q2175.462962962994 801.3888888888889 2137.268518518549 706.25Q2099.074074074105 611.1111111111111 2099.074074074105 495.83333333333337Q2099.074074074105 343.05555555555554 2164.3518518518827 228.47222222222223Q2229.6296296296605 113.88888888888891 2345.6018518518827 50.00000000000006Q2461.574074074105 -13.8888888888888 2610.185185185216 -13.8888888888888Q2761.574074074105 -13.8888888888888 2876.8518518518827 50.00000000000006Q2992.1296296296605 113.88888888888891 3058.1018518518827 229.16666666666669Q3124.074074074105 344.44444444444446 3124.074074074105 497.22222222222223Q3124.074074074105 611.1111111111111 3085.8796296296605 706.25Q3047.685185185216 801.3888888888889 2978.935185185216 870.1388888888889Q2910.185185185216 938.8888888888889 2816.435185185216 976.3888888888889Q2722.685185185216 1013.8888888888889 2611.574074074105 1013.8888888888889ZM2610.185185185216 844.4444444444445Q2697.685185185216 844.4444444444445 2764.3518518518827 800.0Q2831.018518518549 755.5555555555555 2869.2129629629935 677.0833333333333Q2907.4074074074383 598.6111111111111 2907.4074074074383 494.44444444444446Q2907.4074074074383 391.66666666666674 2869.9074074074383 315.2777777777778Q2832.4074074074383 238.8888888888889 2765.740740740772 197.22222222222223Q2699.074074074105 155.55555555555554 2610.185185185216 155.55555555555554Q2522.685185185216 155.55555555555554 2456.018518518549 197.22222222222223Q2389.3518518518827 238.8888888888889 2352.5462962963275 314.58333333333337Q2315.740740740772 390.2777777777778 2315.740740740772 494.44444444444446Q2315.740740740772 600.0 2353.240740740772 678.4722222222222Q2390.740740740772 756.9444444444445 2457.4074074074383 800.6944444444445Q2524.074074074105 844.4444444444445 2610.185185185216 844.4444444444445Z M3686.1111111111572 1000.0V595.8333333333334L3313.888888888935 0.0H3570.8333333333794L3865.2777777778238 529.1666666666667H3744.4444444444907L4037.5000000000464 0.0H4272.222222222268L3900.0000000000464 595.8333333333334V1000.0Z M4453.703703703765 1000.0 4812.037037037099 0.0H4995.370370370432L4666.203703703765 1000.0ZM5187.037037037099 1000.0 4859.259259259321 0.0H5050.925925925988L5409.259259259321 1000.0ZM4642.592592592655 612.5H5203.703703703765V779.1666666666667H4642.592592592655Z M5644.907407407484 1000.0V0.0H5858.796296296373V1000.0ZM5790.740740740817 480.55555555555554 6240.740740740817 0.0H6525.46296296304L6050.46296296304 480.55555555555554ZM6262.96296296304 1000.0 5787.96296296304 480.55555555555554H6050.46296296304L6553.240740740817 1000.0Z M7195.833333333426 1013.8888888888889Q6981.944444444536 1013.8888888888889 6875.694444444536 896.5277777777778Q6769.444444444536 779.1666666666667 6769.444444444536 554.1666666666667V0.0H6983.333333333426V591.6666666666667Q6983.333333333426 722.2222222222222 7040.27777777787 783.3333333333333Q7097.2222222223145 844.4444444444445 7197.2222222223145 844.4444444444445Q7297.2222222223145 844.4444444444445 7354.166666666759 783.3333333333333Q7411.111111111203 722.2222222222222 7411.111111111203 593.0555555555555V0.0H7625.000000000092V556.9444444444445Q7625.000000000092 779.1666666666667 7518.0555555556475 896.5277777777778Q7411.111111111203 1013.8888888888889 7195.833333333426 1013.8888888888889Z"/>
    <path id="slogan" fill="#FB7185" stroke="#FB7185" stroke-width="9.97"
          stroke-linejoin="round" stroke-linecap="round" d="M648.8357660559774 1642.893625427828Q641.6746829071953 1642.893625427828 641.6746829071953 1637.7785660358409Q641.6746829071953 1632.152000704655 651.9048016911696 1630.617482887059L662.134920475144 1629.0829650694627Q673.3880511375158 1627.5484472518665 677.7358516207049 1623.7121527078762Q682.083652103894 1619.8758581638858 684.1296758606888 1609.1342334407127L753.6944835917145 1308.3687411918668Q755.7405073485094 1299.6731402254886 754.2059895309133 1295.0695867727Q752.671471713317 1290.4660333199115 740.9068351117465 1288.4200095631168L730.6767163277722 1286.3739858063218Q724.0271391181889 1284.8394679887256 724.0271391181889 1280.7474204751359Q724.0271391181889 1274.6093492047512 733.2342460237658 1274.6093492047512H832.9779041675157Q875.4328971210093 1274.6093492047512 897.9391584457528 1297.6271164686937Q920.4454197704964 1320.644883732636 920.4454197704964 1355.4272875981487Q920.4454197704964 1387.6521617676678 903.8214767465381 1415.0177295147992Q887.1975337225798 1442.3832972619307 857.7859422186535 1459.2629932554883Q828.3743507147273 1476.142689249046 788.988393396426 1476.142689249046H758.8095429837017Q750.6254479565222 1476.142689249046 748.0679182605286 1484.8382902154244L719.4235856654004 1607.0882096839177Q716.8660559694068 1618.3413403462896 720.7023505133973 1622.4333878598793Q724.5386450573876 1626.525435373469 737.3262935373555 1628.0599531910652L761.8785786188939 1631.1289888262575Q766.4821320716824 1631.6404947654562 766.4821320716824 1636.2440482182446Q766.4821320716824 1642.893625427828 757.2750251661055 1642.893625427828ZM759.8325548620991 1435.2222141131488Q756.7635192269067 1448.5213685323154 762.645837527692 1455.9382046506967Q768.5281558284773 1463.3550407690782 787.4538755788299 1463.3550407690782Q813.0291725387657 1463.3550407690782 831.1876333803202 1452.613416045905Q849.3460942218746 1441.871791322732 860.8549778538459 1424.7363423595748Q872.363861485817 1407.6008933964179 877.7346738474034 1387.9079147372672Q883.10548620899 1368.2149360781166 883.10548620899 1350.3122282061615Q883.10548620899 1322.1794015502321 868.2718139722272 1304.7881996174756Q853.4381417354645 1287.3969976847193 824.7938091403362 1287.3969976847193Q793.5919468492144 1287.3969976847193 788.988393396426 1307.857235252668Z M1040.1378095429964 1642.893625427828Q1032.9767263942144 1642.893625427828 1034.5112442118104 1636.2440482182446L1083.1043084356886 1432.1531784779563Q1085.6618381316823 1420.9000478155845 1083.8715673444867 1414.5062235756004Q1082.0812965572914 1408.1123993356166 1074.4087074693105 1408.1123993356166Q1065.2016005637336 1408.1123993356166 1054.204222870961 1421.6673067243828Q1043.2068451781888 1435.2222141131488 1029.3961848198232 1473.0736536138538Q1027.3501610630285 1479.723230823437 1022.2351016710413 1479.723230823437Q1014.5625125830605 1479.723230823437 1018.1430541574516 1470.51612391786Q1029.3961848198232 1435.2222141131488 1041.9280803301917 1415.2734824843988Q1054.4599758405604 1395.3247508556487 1067.2476243205283 1387.1406558284693Q1080.0352728004964 1378.9565608012897 1090.7768975236695 1378.9565608012897Q1107.656593517227 1378.9565608012897 1114.8176766660092 1391.4884563116584Q1121.9787598147914 1404.020351822027 1115.329182605208 1432.664684417155L1109.702617274022 1456.7054635594948Q1109.1911113348233 1460.2860051338857 1111.2371350916183 1460.7975110730845Q1113.283158848413 1461.3090170122832 1114.8176766660092 1458.239981377091Q1134.2549023555605 1413.7389646668025 1150.1115864707208 1396.3477627340462Q1165.9682705858809 1378.9565608012897 1186.4285081538296 1378.9565608012897Q1200.239168512195 1378.9565608012897 1207.1444986913777 1386.373396919671Q1214.0498288705605 1393.7902330380525 1214.0498288705605 1406.5778815180206Q1214.0498288705605 1419.3655299979885 1207.9117576001759 1427.0381190859694Q1201.7736863297912 1434.71070817395 1192.0550734850156 1434.71070817395Q1183.8709784578361 1434.71070817395 1180.2904368834452 1430.61866066036Q1176.709895309054 1426.5266131467704 1174.9196245218586 1421.155800785184Q1173.129353734663 1415.7849884235975 1171.0833299778683 1411.6929409100076Q1169.0373062210733 1407.6008933964179 1164.4337527682849 1407.6008933964179Q1156.761163680304 1407.6008933964179 1144.4850211395346 1427.0381190859691Q1132.2088785987655 1446.4753447755204 1118.1424652708008 1479.4674778538379Q1104.076051942836 1512.459610932155 1091.0326504932686 1553.3800860680526Q1077.9892490437014 1594.3005612039499 1068.2706361989258 1637.2670600966421Q1066.7361183813298 1642.893625427828 1061.1095530501439 1642.893625427828Z M1372.616670022163 1647.4971788806165Q1340.9033017918423 1647.4971788806165 1322.4890879806885 1621.1546230118824Q1304.0748741695347 1594.8120671431486 1304.0748741695347 1549.7995444936614Q1304.0748741695347 1516.5516584457448 1314.8164988927078 1485.861302093822Q1325.5581236158807 1455.1709457418988 1343.2050785182364 1431.1301665995588Q1360.8520334205923 1407.0893874572191 1382.5910358365377 1393.0229741292544Q1404.3300382524833 1378.9565608012897 1426.3247936380283 1378.9565608012897Q1458.0381618683487 1378.9565608012897 1476.4523756795024 1405.0433637004244Q1494.8665894906565 1431.1301665995588 1494.8665894906565 1476.6541951882448Q1494.8665894906565 1509.9020812361614 1484.1249647674833 1540.5924375880845Q1473.3833400443102 1571.2827939400077 1455.7363851419545 1595.3235730823474Q1438.0894302395986 1619.364352224687 1416.3504278236533 1633.4307655526518Q1394.6114254077077 1647.4971788806165 1372.616670022163 1647.4971788806165ZM1371.5936581437654 1635.2210363398474Q1387.9618481981245 1635.2210363398474 1403.5627793436852 1619.364352224687Q1419.1637104892461 1603.5076681095268 1431.9513589692142 1577.420865210392Q1444.739007449182 1551.3340623112576 1452.411596537163 1519.3649411113379Q1460.0841856251436 1487.395819911418 1460.0841856251436 1455.1709457418988Q1460.0841856251436 1391.232703342059 1426.836299577227 1391.232703342059Q1410.9796154620667 1391.232703342059 1395.1229313469064 1406.8336344876197Q1379.266247231746 1422.4345656331807 1366.7343517213776 1448.5213685323154Q1354.2024562110091 1474.60817143145 1346.5298671230285 1506.5772926313698Q1338.8572780350476 1538.5464138312896 1338.8572780350476 1570.771288000809Q1338.8572780350476 1635.2210363398474 1371.5936581437654 1635.2210363398474Z M1629.392651499919 1642.893625427828Q1622.7430742903357 1642.893625427828 1624.277592107932 1636.2440482182446L1675.9396919670023 1415.2734824843988Q1680.5432454197908 1396.3477627340462 1663.6635494262332 1396.3477627340462H1652.92192470306Q1644.7378296758804 1396.3477627340462 1644.7378296758804 1389.186679585264Q1644.7378296758804 1382.025596436482 1653.9449365814576 1382.025596436482Q1669.8016206966176 1382.025596436482 1677.729962754198 1377.9335489228922Q1685.658304811778 1373.8415014093025 1688.2158345077717 1361.5653588685334Q1694.8654117173548 1332.4095203342065 1707.9088131669223 1309.6475060398634Q1720.9522146164895 1286.8854917455205 1739.3664284276433 1273.586337326354Q1757.780642238797 1260.2871829071873 1779.775397624342 1260.2871829071873Q1797.6781054962971 1260.2871829071873 1808.6754831890696 1268.7270309039661Q1819.672860881842 1277.166878900745 1819.672860881842 1292.0005511375077Q1819.672860881842 1303.2536817998796 1813.7905425810568 1310.1590119790621Q1807.9082242802715 1317.064342158245 1799.2126233138933 1317.064342158245Q1788.4709985907202 1317.064342158245 1785.1462099859286 1310.9262708878603Q1781.8214213811368 1304.7881996174756 1781.0541624723387 1296.6041045902962Q1780.2869035635408 1288.4200095631168 1777.729373867547 1282.281938292732Q1775.1718441715536 1276.1438670223474 1765.9647372659767 1276.1438670223474Q1754.2001006644061 1276.1438670223474 1745.2487467284286 1287.6527506543187Q1736.297392792451 1299.1616342862899 1729.136309643669 1330.8750025166103L1718.9061908596946 1375.3760192268987Q1717.3716730420986 1382.025596436482 1724.5327561908805 1382.025596436482H1765.453231326778Q1775.1718441715536 1382.025596436482 1773.1258204147587 1389.186679585264Q1771.5913025971627 1396.3477627340462 1763.9187135091818 1396.3477627340462H1719.4176967988933Q1714.3026374069061 1396.3477627340462 1712.7681195893101 1401.4628221260332L1658.0369840950473 1637.2670600966421Q1656.502466277451 1642.893625427828 1650.8759009462651 1642.893625427828Z M1914.8129655728035 1647.4971788806165Q1887.7031507952715 1647.4971788806165 1871.3349607409127 1626.2696824038699Q1854.9667706865537 1605.042185927123 1854.9667706865537 1566.1677345480205Q1854.9667706865537 1532.408342560905 1866.9871602577236 1499.1604565129883Q1879.0075498288934 1465.9125704650717 1898.4447755184447 1438.8027556875395Q1917.882001207996 1411.6929409100076 1941.1555214415375 1395.3247508556487Q1964.4290416750791 1378.9565608012897 1986.423797060624 1378.9565608012897Q2010.4645762029638 1378.9565608012897 2020.9504479565376 1390.465444433261Q2031.436319710111 1401.974328065232 2031.436319710111 1421.4115537547832Q2031.436319710111 1444.4293210187257 2015.3238826253514 1467.1913353130685Q1999.211445540592 1489.9533496074114 1970.3113599758644 1507.8560574793664Q1941.411274411137 1525.7587653513217 1902.5368230320344 1534.4543663176999Q1891.2836923696625 1537.0118960136936 1890.7721864304638 1547.242014797668Q1890.2606804912652 1550.822556372059 1890.2606804912652 1554.6588509160492Q1890.2606804912652 1558.4951454600396 1890.2606804912652 1562.0756870344308Q1890.2606804912652 1591.2315255687577 1900.23504630564 1606.0651978055205Q1910.209412120015 1620.8988700422833 1927.6006140527716 1620.8988700422833Q1947.0378397423228 1620.8988700422833 1965.1963005838772 1602.9961621703283Q1983.3547614254317 1585.093454298373 1995.630903966201 1552.3570741896551Q1997.1654217837972 1547.7535207368664 2001.7689752365857 1547.7535207368664Q2004.838010871778 1547.7535207368664 2005.605269780576 1550.3110504328602Q2006.3725286893741 1552.8685801288539 2005.3495168109766 1556.4491217032448Q1988.9813267566176 1601.461644352732 1965.707806523076 1624.4794116166743Q1942.4342862895344 1647.4971788806165 1914.8129655728035 1647.4971788806165ZM1895.887245822451 1515.0171406281486Q1894.8642339440537 1518.5976822025395 1897.166010670448 1520.8994589289339Q1899.4677873968421 1523.2012356553282 1903.048328971233 1522.1782237769307Q1934.7616972015535 1513.4826228105526 1956.2449466478997 1495.8356679081967Q1977.728196094246 1478.188713005841 1988.7255737870182 1456.1939576202963Q1999.7229514797907 1434.1992022347513 1999.7229514797907 1413.2274587276038Q1999.7229514797907 1391.7442092812576 1982.843255486233 1391.7442092812576Q1968.0095832494703 1391.7442092812576 1950.618381316714 1409.1354112140139Q1933.2271793839575 1426.5266131467704 1918.3935071471947 1454.6594398027Q1903.5598349104318 1482.7922664586295 1895.887245822451 1515.0171406281486Z M2193.5837024361044 1647.4971788806165Q2176.704006442547 1647.4971788806165 2158.0340396617935 1642.3821194886293Q2139.36407288104 1637.2670600966421 2129.6454600362645 1629.5944710086615Q2126.0649184618737 1626.525435373469 2126.5764244010725 1620.3873641030846L2137.8295550634443 1553.3800860680524Q2138.852566941842 1546.7305088584692 2143.967626333829 1546.7305088584692Q2149.5941916650145 1546.7305088584692 2149.5941916650145 1553.8915920072511L2150.617203543412 1578.4438770887896Q2151.6402154218094 1607.5997156231165 2164.683616871377 1621.1546230118824Q2177.7270183209444 1634.7095304006486 2196.652738071297 1634.7095304006486Q2213.0209281256557 1634.7095304006486 2224.7855647272263 1624.223658647075Q2236.550201328797 1613.7377868935012 2236.550201328797 1593.2775493255524Q2236.550201328797 1581.512912723982 2232.9696597544057 1571.538546909607Q2229.3891181800145 1561.564181095232 2221.716529092034 1550.0552974632608Q2214.043940004053 1538.5464138312896 2200.7447855848864 1522.1782237769307Q2183.35358365213 1499.671962452187 2174.913735655351 1483.5595253674273Q2166.4738876585725 1467.447088282668 2166.4738876585725 1450.0558863499116Q2166.4738876585725 1417.8310121803922 2186.6783722569216 1398.393786490841Q2206.8828568552713 1378.9565608012897 2238.0847191463927 1378.9565608012897Q2251.8953795047582 1378.9565608012897 2264.9387809543255 1383.0486083148794Q2277.9821824038927 1387.1406558284693 2286.677783370271 1395.3247508556487Q2291.2813368230595 1398.9052924300397 2289.7468190054633 1404.5318577612256L2275.4246527078994 1473.0736536138538Q2273.890134890303 1479.723230823437 2269.2865814375145 1479.723230823437Q2264.6830279847263 1479.723230823437 2263.660016106329 1472.562147674655L2262.1254982887326 1448.0098625931166Q2260.0794745319376 1417.3195062411935 2254.1971562311523 1404.020351822027Q2248.314837930367 1390.7211974028603 2229.9006241192133 1390.7211974028603Q2213.5324340648544 1390.7211974028603 2203.30231528088 1401.974328065232Q2193.0721964969057 1413.2274587276038 2193.0721964969057 1429.084142842764Q2193.0721964969057 1445.9638388363217 2202.2793034024826 1460.0302521642866Q2211.4864103080595 1474.0966654922513 2227.3430944232196 1495.5799149385973Q2248.314837930367 1523.2012356553282 2255.7316740487486 1539.569425709687Q2263.14851016713 1555.937615764046 2263.14851016713 1572.8173117576036Q2263.14851016713 1594.3005612039499 2253.6856502919536 1611.1802571975077Q2244.2227904167776 1628.0599531910652 2228.366106301617 1637.7785660358409Q2212.509422186457 1647.4971788806165 2193.5837024361044 1647.4971788806165Z M2455.4747433058483 1647.4971788806165Q2438.5950473122907 1647.4971788806165 2419.9250805315373 1642.3821194886293Q2401.255113750784 1637.2670600966421 2391.5365009060083 1629.5944710086615Q2387.9559593316176 1626.525435373469 2388.4674652708163 1620.3873641030846L2399.720595933188 1553.3800860680524Q2400.7436078115857 1546.7305088584692 2405.8586672035726 1546.7305088584692Q2411.4852325347583 1546.7305088584692 2411.4852325347583 1553.8915920072511L2412.508244413156 1578.4438770887896Q2413.5312562915533 1607.5997156231165 2426.574657741121 1621.1546230118824Q2439.618059190688 1634.7095304006486 2458.5437789410407 1634.7095304006486Q2474.9119689953995 1634.7095304006486 2486.67660559697 1624.223658647075Q2498.4412421985407 1613.7377868935012 2498.4412421985407 1593.2775493255524Q2498.4412421985407 1581.512912723982 2494.8607006241496 1571.538546909607Q2491.2801590497584 1561.564181095232 2483.6075699617777 1550.0552974632608Q2475.934980873797 1538.5464138312896 2462.63582645463 1522.1782237769307Q2445.244624521874 1499.671962452187 2436.804776525095 1483.5595253674273Q2428.3649285283163 1467.447088282668 2428.3649285283163 1450.0558863499116Q2428.3649285283163 1417.8310121803922 2448.5694131266655 1398.393786490841Q2468.773897725015 1378.9565608012897 2499.9757600161365 1378.9565608012897Q2513.786420374502 1378.9565608012897 2526.8298218240693 1383.0486083148794Q2539.8732232736365 1387.1406558284693 2548.5688242400147 1395.3247508556487Q2553.1723776928034 1398.9052924300397 2551.637859875207 1404.5318577612256L2537.3156935776433 1473.0736536138538Q2535.781175760047 1479.723230823437 2531.1776223072584 1479.723230823437Q2526.57406885447 1479.723230823437 2525.5510569760727 1472.562147674655L2524.0165391584765 1448.0098625931166Q2521.9705154016815 1417.3195062411935 2516.088197100896 1404.020351822027Q2510.205878800111 1390.7211974028603 2491.791664988957 1390.7211974028603Q2475.4234749345983 1390.7211974028603 2465.193356150624 1401.974328065232Q2454.9632373666495 1413.2274587276038 2454.9632373666495 1429.084142842764Q2454.9632373666495 1445.9638388363217 2464.1703442722264 1460.0302521642866Q2473.3774511778033 1474.0966654922513 2489.2341352929634 1495.5799149385973Q2510.205878800111 1523.2012356553282 2517.6227149184924 1539.569425709687Q2525.039551036874 1555.937615764046 2525.039551036874 1572.8173117576036Q2525.039551036874 1594.3005612039499 2515.5766911616975 1611.1802571975077Q2506.1138312865214 1628.0599531910652 2490.257147171361 1637.7785660358409Q2474.400463056201 1647.4971788806165 2455.4747433058483 1647.4971788806165Z M2762.3783068250787 1333.4325322126037Q2752.659693980303 1333.4325322126037 2746.2658697403194 1326.527202033421Q2739.8720455003354 1319.6218718542384 2739.8720455003354 1309.9032590094628Q2739.8720455003354 1296.0925986510974 2748.3118934971144 1287.908503623918Q2756.751741493893 1279.7244085967386 2767.493366217066 1279.7244085967386Q2777.7234850010404 1279.7244085967386 2784.628815180223 1286.1182328367227Q2791.5341453594056 1292.5120570767065 2791.5341453594056 1302.7421758606808Q2791.5341453594056 1317.064342158245 2782.8385443930274 1325.2484371854243Q2774.1429434266493 1333.4325322126037 2762.3783068250787 1333.4325322126037ZM2720.434819810784 1648.0086848198152Q2703.555123817226 1648.0086848198152 2696.394040668444 1635.4767893094468Q2689.2329575196622 1622.944893799078 2695.8825347292454 1594.3005612039499L2733.7339742299505 1432.1531784779563Q2736.291503925944 1420.9000478155845 2734.501233138749 1414.5062235756004Q2732.710962351553 1408.1123993356166 2725.0383732635723 1408.1123993356166Q2715.8312663579954 1408.1123993356166 2704.8338886652227 1421.6673067243828Q2693.8365109724505 1435.2222141131488 2680.0258506140854 1473.0736536138538Q2677.9798268572904 1479.723230823437 2672.864767465303 1479.723230823437Q2665.1921783773223 1479.723230823437 2668.7727199517135 1470.51612391786Q2680.0258506140854 1435.2222141131488 2692.557746124454 1415.2734824843988Q2705.0896416348223 1395.3247508556487 2717.8772901147904 1387.1406558284693Q2730.6649385947585 1378.9565608012897 2741.406563317931 1378.9565608012897Q2759.3092711898867 1378.9565608012897 2766.4703543386686 1391.4884563116584Q2773.6314374874505 1404.020351822027 2766.9818602778673 1432.664684417155L2729.1304207771623 1594.8120671431486Q2726.5728910811686 1606.0651978055205 2728.363161868364 1612.4590220455043Q2730.1534326555598 1618.8528462854883 2737.8260217435404 1618.8528462854883Q2747.0331286491173 1618.8528462854883 2758.03050634189 1605.2979388967224Q2769.0278840346623 1591.7430315079564 2782.8385443930274 1553.8915920072511Q2784.8845681498224 1547.242014797668 2789.9996275418093 1547.242014797668Q2797.6722166297905 1547.242014797668 2794.0916750553993 1556.4491217032448Q2783.350050332226 1591.2315255687577 2770.306648882659 1611.4360101671068Q2757.2632474330917 1631.6404947654562 2744.4755989531236 1639.8245897926358Q2731.6879504731555 1648.0086848198152 2720.434819810784 1648.0086848198152Z M2991.5329675861044 1647.4971788806165Q2959.819599355784 1647.4971788806165 2941.40538554463 1621.1546230118824Q2922.991171733476 1594.8120671431486 2922.991171733476 1549.7995444936614Q2922.991171733476 1516.5516584457448 2933.7327964566493 1485.861302093822Q2944.4744211798225 1455.1709457418988 2962.1213760821784 1431.1301665995588Q2979.768330984534 1407.0893874572191 3001.507333400479 1393.0229741292544Q3023.246335816425 1378.9565608012897 3045.2410912019695 1378.9565608012897Q3076.95445943229 1378.9565608012897 3095.368673243444 1405.0433637004244Q3113.7828870545977 1431.1301665995588 3113.7828870545977 1476.6541951882448Q3113.7828870545977 1509.9020812361614 3103.041262331425 1540.5924375880845Q3092.299637608252 1571.2827939400077 3074.652682705896 1595.3235730823474Q3057.00572780354 1619.364352224687 3035.2667253875948 1633.4307655526518Q3013.5277229716494 1647.4971788806165 2991.5329675861044 1647.4971788806165ZM2990.509955707707 1635.2210363398474Q3006.8781457620657 1635.2210363398474 3022.4790769076267 1619.364352224687Q3038.0800080531876 1603.5076681095268 3050.8676565331552 1577.420865210392Q3063.6553050131233 1551.3340623112576 3071.327894101104 1519.3649411113379Q3079.000483189085 1487.395819911418 3079.000483189085 1455.1709457418988Q3079.000483189085 1391.232703342059 3045.7525971411683 1391.232703342059Q3029.895913026008 1391.232703342059 3014.0392289108477 1406.8336344876197Q2998.1825447956876 1422.4345656331807 2985.650649285319 1448.5213685323154Q2973.1187537749506 1474.60817143145 2965.4461646869695 1506.5772926313698Q2957.773575598989 1538.5464138312896 2957.773575598989 1570.771288000809Q2957.773575598989 1635.2210363398474 2990.509955707707 1635.2210363398474Z M3259.0505737870335 1636.2440482182446 3307.6436380109117 1432.1531784779563Q3310.2011677069054 1420.9000478155845 3308.4108969197096 1414.5062235756004Q3306.620626132514 1408.1123993356166 3298.9480370445335 1408.1123993356166Q3289.7409301389566 1408.1123993356166 3278.7435524461844 1421.6673067243828Q3267.7461747534117 1435.2222141131488 3253.9355143950465 1473.0736536138538Q3251.8894906382516 1479.723230823437 3246.774431246264 1479.723230823437Q3239.1018421582835 1479.723230823437 3242.6823837326747 1470.51612391786Q3253.9355143950465 1435.2222141131488 3266.467409905415 1415.2734824843988Q3278.9993054157835 1395.3247508556487 3291.7869538957516 1387.1406558284693Q3304.5746023757197 1378.9565608012897 3315.3162270988923 1378.9565608012897Q3332.1959230924504 1378.9565608012897 3339.3570062412323 1391.4884563116584Q3346.518089390014 1404.020351822027 3339.868512180431 1432.664684417155L3327.080863700463 1487.9073258506166Q3326.569357761264 1491.4878674250076 3328.615381518059 1491.9993733642063Q3330.661405274854 1492.510879303405 3332.1959230924504 1489.4418436682126Q3352.1446547212004 1448.0098625931166 3370.558868532354 1423.7133304811775Q3388.973082343508 1399.4167983692384 3405.341272397867 1389.186679585264Q3421.709462452226 1378.9565608012897 3435.0086168713924 1378.9565608012897Q3453.934336621745 1378.9565608012897 3462.629937588123 1394.3017389772513Q3471.3255385545012 1409.6469171532128 3462.629937588123 1441.3602853835332L3423.7554862090205 1589.6970077511614Q3420.17494463463 1604.0191740487255 3423.243980269822 1611.1802571975077Q3426.3130159050143 1618.3413403462896 3434.4971109321937 1618.3413403462896Q3444.727229716168 1618.3413403462896 3454.7015955305433 1604.7864329575236Q3464.675961344918 1591.2315255687577 3475.417586068091 1553.3800860680524Q3476.9521038856874 1547.7535207368664 3482.0671632776744 1547.7535207368664Q3486.1592107912643 1547.7535207368664 3486.9264697000626 1550.822556372059Q3487.6937286088605 1553.8915920072511 3486.670716730463 1557.9836395208408Q3476.9521038856874 1592.7660433863537 3465.6989732233155 1612.4590220455043Q3454.4458425609437 1632.152000704655 3442.9369589289727 1639.8245897926358Q3431.4280752970017 1647.4971788806165 3419.663438695431 1647.4971788806165Q3401.2492248842773 1647.4971788806165 3392.0421179787004 1632.152000704655Q3382.8350110731235 1616.8068225286934 3391.019106100303 1584.5819483591742L3430.405063418604 1436.245225991546Q3436.03162874979 1416.2964943627962 3432.1953342057996 1408.6239052748156Q3428.359039661809 1400.9513161868347 3421.1979565130273 1400.9513161868347Q3409.9448258506554 1400.9513161868347 3395.6226595530916 1415.0177295147994Q3381.3004932555273 1429.084142842764 3366.4668210187647 1453.3806749547032Q3351.6331487820016 1477.6772070666423 3337.310982484438 1508.3675634185652Q3322.9888161868735 1539.0579197704883 3311.479932554902 1572.3058058184051Q3299.971048922931 1605.5536918663217 3292.809965774149 1637.2670600966421Q3291.275447956553 1642.893625427828 3285.6488826253667 1642.893625427828H3264.6771391182197Q3257.5160559694373 1642.893625427828 3259.0505737870335 1636.2440482182446Z M3651.37562915245 1647.4971788806165Q3632.9614153412963 1647.4971788806165 3622.731296557322 1631.6404947654564Q3612.5011777733475 1615.7838106502961 3612.5011777733475 1585.093454298373Q3612.5011777733475 1555.937615764046 3620.685272800527 1526.5260242601198Q3628.869367827707 1497.1144327561935 3643.1915341252707 1470.51612391786Q3657.513700422835 1443.917815079527 3675.6721612643896 1423.4575775115782Q3693.830622105944 1402.9973399436294 3714.035106704293 1390.9769503724597Q3734.2395913026426 1378.9565608012897 3754.1883229313926 1378.9565608012897Q3763.906935776168 1378.9565608012897 3772.6025367425464 1382.7928553452803Q3781.2981377089245 1386.6291498892706 3786.92470304011 1394.81324491645Q3789.9937386753027 1399.4167983692384 3793.062774310495 1399.4167983692384Q3796.1318099456876 1399.4167983692384 3799.2008455808796 1394.81324491645Q3804.8274109120657 1386.6291498892706 3808.4079524864565 1384.3273731628763Q3811.9884940608476 1382.025596436482 3815.05752969604 1382.025596436482Q3821.7071069056233 1382.025596436482 3820.172589088027 1389.186679585264L3774.6485604993413 1585.093454298373Q3766.97597141136 1618.3413403462896 3784.8786792833157 1618.3413403462896Q3796.643315884886 1618.3413403462896 3806.1061757600623 1602.4846562311295Q3815.569035635239 1586.6279721159692 3825.2876484800145 1553.3800860680524Q3826.8221662976102 1547.7535207368664 3831.9372256895977 1547.7535207368664Q3835.5177672639884 1547.7535207368664 3836.540779142386 1550.822556372059Q3837.5637910207834 1553.8915920072511 3836.540779142386 1557.9836395208408Q3826.8221662976102 1606.0651978055205 3810.4539762432514 1626.7811883430686Q3794.0857861888926 1647.4971788806165 3771.06801892495 1647.4971788806165Q3751.1192872962 1647.4971788806165 3742.6794392994216 1630.617482887059Q3734.2395913026426 1613.7377868935012 3740.8891685122258 1584.5819483591742L3747.538745721809 1556.4491217032448Q3748.5617576002064 1552.8685801288539 3746.2599808738123 1552.3570741896551Q3743.958204147418 1551.8455682504564 3742.423686329822 1554.9146038856486Q3714.2908596738926 1606.576703744719 3692.5518572579467 1627.0369413126678Q3670.8128548420013 1647.4971788806165 3651.37562915245 1647.4971788806165ZM3664.163277632418 1621.4103759814818Q3676.4394201731875 1621.4103759814818 3691.2730924099506 1606.576703744719Q3706.106764646713 1591.7430315079564 3720.6846839138766 1568.2137583048152Q3735.26260318104 1544.6844851016742 3747.5387457218094 1517.574670324142Q3759.8148882625783 1490.4648555466101 3767.23172438096 1465.4010645258732Q3774.6485604993413 1440.337273505136 3774.6485604993413 1422.9460715723794Q3774.6485604993413 1391.7442092812576 3752.6538051137964 1391.7442092812576Q3739.3546506946295 1391.7442092812576 3724.5209784578665 1403.7645988524275Q3709.687306221104 1415.7849884235975 3696.132398832338 1436.2452259915462Q3682.577491443572 1456.7054635594948 3671.5801137507997 1482.53651348903Q3660.582736058027 1508.3675634185654 3653.933158848444 1536.2446371048954Q3647.2835816388606 1564.1217107912255 3647.2835816388606 1590.720019629559Q3647.2835816388606 1608.622727501514 3651.6313821220497 1615.016551741498Q3655.9791826052387 1621.4103759814818 3664.163277632418 1621.4103759814818Z M3993.5731024763923 1648.0086848198152Q3976.6934064828347 1648.0086848198152 3969.5323233340523 1635.4767893094468Q3962.3712401852704 1622.944893799078 3969.020817394854 1594.3005612039499L4033.982071673091 1315.5298243406487Q4036.5396013690847 1306.3227174350718 4034.2378246426906 1302.7421758606808Q4031.936047916296 1299.1616342862899 4024.774964767514 1298.6501283470911L4009.4297865915523 1297.115610529495Q4001.7571975035717 1296.6041045902962 4002.780209381969 1290.4660333199115Q4003.8032212603666 1285.862479867123 4009.941292530751 1284.8394679887256Q4028.3555063419053 1281.7704323535334 4042.677672639469 1277.4226318703443Q4056.9998389370335 1273.0748313871552 4065.6954399034116 1265.913748238373Q4069.787487417001 1262.8447126031808 4073.3680289913923 1262.8447126031808Q4079.5061002617767 1262.8447126031808 4077.9715824441805 1270.5173016911617L4002.2687034427704 1594.8120671431486Q3999.7111737467767 1606.0651978055205 4001.501444533972 1612.4590220455043Q4003.291715321168 1618.8528462854883 4010.9643044091486 1618.8528462854883Q4020.1714113147254 1618.8528462854883 4031.168789007498 1605.2979388967224Q4042.1661667002704 1591.7430315079564 4055.976827058636 1553.8915920072511Q4058.0228508154305 1547.242014797668 4063.137910207418 1547.242014797668Q4070.8104992953986 1547.242014797668 4067.229957721008 1556.4491217032448Q4056.4883329978347 1591.2315255687577 4043.444931548267 1611.4360101671068Q4030.4015300987 1631.6404947654562 4017.613881618732 1639.8245897926358Q4004.826233138764 1648.0086848198152 3993.5731024763923 1648.0086848198152Z M4413.519478558539 1642.893625427828Q4406.358395409757 1642.893625427828 4406.358395409757 1637.7785660358409Q4406.358395409757 1632.6635066438537 4414.5424904369365 1631.1289888262575L4436.025739883283 1627.5484472518665Q4446.255858667257 1626.0139294342703 4451.370918059244 1622.17763489028Q4456.4859774512315 1618.3413403462896 4458.532001208026 1607.5997156231165L4529.6313267566475 1300.6961521038859Q4531.165844574244 1293.535068955104 4528.352561908651 1290.4660333199117Q4525.539279243058 1287.3969976847193 4515.820666398283 1287.3969976847193Q4498.429464465526 1287.3969976847193 4477.713473927977 1301.463411012684Q4456.99748339043 1315.5298243406487 4440.629293336071 1353.8927697805525L4432.445198308891 1373.3299954701038Q4429.887668612898 1379.9795726796872 4423.749597342513 1379.9795726796872Q4416.5885141937315 1379.9795726796872 4419.146043889725 1371.283971713309L4444.721340849661 1278.7013967183411Q4447.790376484853 1266.9367601167705 4455.974471512032 1266.9367601167705Q4460.5780249648205 1266.9367601167705 4463.391307630414 1268.7270309039661Q4466.204590296007 1270.5173016911617 4472.85416750559 1272.5633254479565Q4479.5037447151735 1274.6093492047512 4495.871934769532 1274.6093492047512H4609.937759210847Q4626.3059492652055 1274.6093492047512 4634.234291322786 1272.5633254479565Q4642.162633380366 1270.5173016911617 4645.998927924356 1268.7270309039661Q4649.835222468347 1266.9367601167705 4652.904258103539 1266.9367601167705Q4661.599859069917 1266.9367601167705 4659.042329373923 1278.7013967183411L4642.674139319564 1371.283971713309Q4641.139621501969 1379.9795726796872 4633.978538353186 1379.9795726796872Q4627.328961143603 1379.9795726796872 4628.3519730220005 1373.3299954701038L4629.374984900398 1360.542346990136Q4632.44402053559 1322.6909074894309 4619.656372055622 1305.0439525870752Q4606.868723575654 1287.3969976847193 4583.850956311712 1287.3969976847193Q4574.132343466937 1287.3969976847193 4570.296048922946 1290.4660333199117Q4566.459754378955 1293.535068955104 4564.925236561359 1300.6961521038859L4493.825911012737 1607.5997156231165Q4491.268381316744 1618.3413403462896 4494.593169921536 1622.17763489028Q4497.917958526327 1626.0139294342703 4507.636571371103 1627.5484472518665L4531.677350513442 1631.1289888262575Q4537.303915844628 1631.6404947654562 4537.303915844628 1636.7555541574434Q4537.303915844628 1642.893625427828 4529.119820817449 1642.893625427828Z M4743.952315280911 1642.893625427828Q4736.791232132129 1642.893625427828 4738.325749949725 1636.2440482182446L4786.918814173603 1432.1531784779563Q4789.476343869596 1420.9000478155845 4787.686073082401 1414.5062235756004Q4785.895802295206 1408.1123993356166 4778.223213207225 1408.1123993356166Q4769.0161063016485 1408.1123993356166 4758.018728608876 1421.6673067243828Q4747.021350916103 1435.2222141131488 4733.2106905577375 1473.0736536138538Q4731.1646668009425 1479.723230823437 4726.049607408956 1479.723230823437Q4718.377018320975 1479.723230823437 4721.957559895366 1470.51612391786Q4733.2106905577375 1435.2222141131488 4745.742586068107 1415.2734824843988Q4758.274481578475 1395.3247508556487 4771.062130058443 1387.1406558284693Q4783.849778538411 1378.9565608012897 4794.591403261584 1378.9565608012897Q4811.471099255142 1378.9565608012897 4818.632182403924 1391.4884563116584Q4825.793265552706 1404.020351822027 4819.143688343122 1432.664684417155L4813.517123011937 1456.7054635594948Q4813.005617072738 1460.2860051338857 4815.0516408295325 1460.7975110730845Q4817.0976645863275 1461.3090170122832 4818.632182403923 1458.239981377091Q4838.0694080934745 1413.7389646668025 4853.926092208635 1396.3477627340462Q4869.782776323796 1378.9565608012897 4890.243013891744 1378.9565608012897Q4904.05367425011 1378.9565608012897 4910.959004429293 1386.373396919671Q4917.864334608475 1393.7902330380525 4917.864334608475 1406.5778815180206Q4917.864334608475 1419.3655299979885 4911.726263338091 1427.0381190859694Q4905.588192067706 1434.71070817395 4895.86957922293 1434.71070817395Q4887.68548419575 1434.71070817395 4884.104942621359 1430.61866066036Q4880.524401046969 1426.5266131467704 4878.734130259773 1421.155800785184Q4876.943859472578 1415.7849884235975 4874.897835715783 1411.6929409100076Q4872.851811958988 1407.6008933964179 4868.248258506199 1407.6008933964179Q4860.575669418218 1407.6008933964179 4848.299526877449 1427.0381190859691Q4836.0233843366805 1446.4753447755204 4821.956971008716 1479.4674778538379Q4807.890557680751 1512.459610932155 4794.847156231183 1553.3800860680526Q4781.803754781616 1594.3005612039499 4772.08514193684 1637.2670600966421Q4770.550624119244 1642.893625427828 4764.924058788059 1642.893625427828Z M5043.18328971216 1647.4971788806165Q5024.7690759010065 1647.4971788806165 5014.538957117033 1631.6404947654564Q5004.308838333058 1615.7838106502961 5004.308838333058 1585.093454298373Q5004.308838333058 1555.937615764046 5012.492933360238 1526.5260242601198Q5020.677028387417 1497.1144327561935 5034.9991946849805 1470.51612391786Q5049.321360982545 1443.917815079527 5067.479821824099 1423.4575775115782Q5085.638282665654 1402.9973399436294 5105.842767264003 1390.9769503724597Q5126.047251862353 1378.9565608012897 5145.995983491102 1378.9565608012897Q5155.714596335878 1378.9565608012897 5164.410197302256 1382.7928553452803Q5173.105798268634 1386.6291498892706 5178.732363599821 1394.81324491645Q5181.801399235013 1399.4167983692384 5184.870434870205 1399.4167983692384Q5187.939470505397 1399.4167983692384 5191.00850614059 1394.81324491645Q5196.6350714717755 1386.6291498892706 5200.215613046166 1384.3273731628763Q5203.796154620558 1382.025596436482 5206.86519025575 1382.025596436482Q5213.5147674653335 1382.025596436482 5211.980249647737 1389.186679585264L5166.456221059051 1585.093454298373Q5158.7836319710705 1618.3413403462896 5176.686339843026 1618.3413403462896Q5188.450976444597 1618.3413403462896 5197.913836319773 1602.4846562311295Q5207.376696194949 1586.6279721159692 5217.095309039724 1553.3800860680524Q5218.629826857321 1547.7535207368664 5223.7448862493075 1547.7535207368664Q5227.325427823699 1547.7535207368664 5228.348439702097 1550.822556372059Q5229.371451580494 1553.8915920072511 5228.348439702097 1557.9836395208408Q5218.629826857321 1606.0651978055205 5202.261636802961 1626.7811883430686Q5185.893446748602 1647.4971788806165 5162.87567948466 1647.4971788806165Q5142.926947855911 1647.4971788806165 5134.487099859132 1630.617482887059Q5126.047251862353 1613.7377868935012 5132.696829071936 1584.5819483591742L5139.346406281519 1556.4491217032448Q5140.369418159917 1552.8685801288539 5138.067641433523 1552.3570741896551Q5135.7658647071285 1551.8455682504564 5134.231346889532 1554.9146038856486Q5106.098520233602 1606.576703744719 5084.3595178176565 1627.0369413126678Q5062.620515401712 1647.4971788806165 5043.18328971216 1647.4971788806165ZM5055.970938192128 1621.4103759814818Q5068.247080732897 1621.4103759814818 5083.08075296966 1606.576703744719Q5097.914425206423 1591.7430315079564 5112.492344473587 1568.2137583048152Q5127.07026374075 1544.6844851016742 5139.34640628152 1517.574670324142Q5151.622548822289 1490.4648555466101 5159.03938494067 1465.4010645258732Q5166.456221059051 1440.337273505136 5166.456221059051 1422.9460715723794Q5166.456221059051 1391.7442092812576 5144.461465673507 1391.7442092812576Q5131.16231125434 1391.7442092812576 5116.328639017577 1403.7645988524275Q5101.494966780814 1415.7849884235975 5087.940059392048 1436.2452259915462Q5074.385152003282 1456.7054635594948 5063.3877743105095 1482.53651348903Q5052.390396617738 1508.3675634185654 5045.7408194081545 1536.2446371048954Q5039.09124219857 1564.1217107912255 5039.09124219857 1590.720019629559Q5039.09124219857 1608.622727501514 5043.439042681759 1615.016551741498Q5047.786843164949 1621.4103759814818 5055.970938192128 1621.4103759814818Z M5374.639138312929 1636.2440482182446 5423.232202536808 1432.1531784779563Q5425.789732232801 1420.9000478155845 5423.999461445605 1414.5062235756004Q5422.20919065841 1408.1123993356166 5414.536601570429 1408.1123993356166Q5405.329494664853 1408.1123993356166 5394.33211697208 1421.6673067243828Q5383.3347392793075 1435.2222141131488 5369.524078920942 1473.0736536138538Q5367.478055164147 1479.723230823437 5362.3629957721605 1479.723230823437Q5354.69040668418 1479.723230823437 5358.270948258571 1470.51612391786Q5369.524078920942 1435.2222141131488 5382.0559744313105 1415.2734824843988Q5394.58786994168 1395.3247508556487 5407.375518421648 1387.1406558284693Q5420.163166901615 1378.9565608012897 5430.904791624788 1378.9565608012897Q5447.784487618346 1378.9565608012897 5454.945570767128 1391.4884563116584Q5462.10665391591 1404.020351822027 5455.457076706327 1432.664684417155L5442.669428226359 1487.9073258506166Q5442.1579222871605 1491.4878674250076 5444.2039460439555 1491.9993733642063Q5446.24996980075 1492.510879303405 5447.784487618346 1489.4418436682126Q5467.733219247096 1448.0098625931166 5486.14743305825 1423.7133304811775Q5504.561646869403 1399.4167983692384 5520.929836923762 1389.186679585264Q5537.298026978122 1378.9565608012897 5550.597181397288 1378.9565608012897Q5569.522901147641 1378.9565608012897 5578.218502114019 1394.3017389772513Q5586.914103080398 1409.6469171532128 5578.218502114019 1441.3602853835332L5539.344050734917 1589.6970077511614Q5535.763509160525 1604.0191740487255 5538.832544795718 1611.1802571975077Q5541.90158043091 1618.3413403462896 5550.08567545809 1618.3413403462896Q5560.315794242064 1618.3413403462896 5570.290160056439 1604.7864329575236Q5580.264525870814 1591.2315255687577 5591.006150593987 1553.3800860680524Q5592.540668411583 1547.7535207368664 5597.655727803571 1547.7535207368664Q5601.74777531716 1547.7535207368664 5602.5150342259585 1550.822556372059Q5603.282293134756 1553.8915920072511 5602.259281256359 1557.9836395208408Q5592.540668411583 1592.7660433863537 5581.287537749211 1612.4590220455043Q5570.03440708684 1632.152000704655 5558.525523454869 1639.8245897926358Q5547.016639822898 1647.4971788806165 5535.252003221327 1647.4971788806165Q5516.837789410173 1647.4971788806165 5507.630682504596 1632.152000704655Q5498.423575599019 1616.8068225286934 5506.607670626198 1584.5819483591742L5545.9936279445 1436.245225991546Q5551.620193275686 1416.2964943627962 5547.783898731695 1408.6239052748156Q5543.947604187705 1400.9513161868347 5536.786521038923 1400.9513161868347Q5525.533390376551 1400.9513161868347 5511.211224078987 1415.0177295147994Q5496.889057781423 1429.084142842764 5482.05538554466 1453.3806749547032Q5467.2217133078975 1477.6772070666423 5452.899547010333 1508.3675634185652Q5438.577380712769 1539.0579197704883 5427.068497080798 1572.3058058184051Q5415.559613448827 1605.5536918663217 5408.3985303000445 1637.2670600966421Q5406.864012482449 1642.893625427828 5401.237447151263 1642.893625427828H5380.265703644115Q5373.104620495334 1642.893625427828 5374.639138312929 1636.2440482182446Z M5780.774854036712 1647.4971788806165Q5763.895158043154 1647.4971788806165 5745.2251912624015 1642.3821194886293Q5726.555224481648 1637.2670600966421 5716.8366116368725 1629.5944710086615Q5713.256070062481 1626.525435373469 5713.76757600168 1620.3873641030846L5725.020706664051 1553.3800860680524Q5726.043718542449 1546.7305088584692 5731.158777934436 1546.7305088584692Q5736.785343265622 1546.7305088584692 5736.785343265622 1553.8915920072511L5737.8083551440195 1578.4438770887896Q5738.831367022417 1607.5997156231165 5751.874768471984 1621.1546230118824Q5764.918169921551 1634.7095304006486 5783.843889671904 1634.7095304006486Q5800.212079726263 1634.7095304006486 5811.976716327834 1624.223658647075Q5823.7413529294045 1613.7377868935012 5823.7413529294045 1593.2775493255524Q5823.7413529294045 1581.512912723982 5820.160811355014 1571.538546909607Q5816.580269780622 1561.564181095232 5808.907680692641 1550.0552974632608Q5801.235091604661 1538.5464138312896 5787.935937185494 1522.1782237769307Q5770.544735252737 1499.671962452187 5762.104887255959 1483.5595253674273Q5753.66503925918 1467.447088282668 5753.66503925918 1450.0558863499116Q5753.66503925918 1417.8310121803922 5773.869523857529 1398.393786490841Q5794.074008455878 1378.9565608012897 5825.275870747 1378.9565608012897Q5839.086531105366 1378.9565608012897 5852.1299325549335 1383.0486083148794Q5865.1733340045 1387.1406558284693 5873.868934970878 1395.3247508556487Q5878.472488423667 1398.9052924300397 5876.937970606071 1404.5318577612256L5862.615804308507 1473.0736536138538Q5861.08128649091 1479.723230823437 5856.477733038122 1479.723230823437Q5851.874179585334 1479.723230823437 5850.851167706936 1472.562147674655L5849.31664988934 1448.0098625931166Q5847.270626132546 1417.3195062411935 5841.38830783176 1404.020351822027Q5835.505989530975 1390.7211974028603 5817.091775719821 1390.7211974028603Q5800.7235856654615 1390.7211974028603 5790.493466881488 1401.974328065232Q5780.263348097513 1413.2274587276038 5780.263348097513 1429.084142842764Q5780.263348097513 1445.9638388363217 5789.47045500309 1460.0302521642866Q5798.6775619086675 1474.0966654922513 5814.534246023827 1495.5799149385973Q5835.505989530975 1523.2012356553282 5842.922825649356 1539.569425709687Q5850.339661767737 1555.937615764046 5850.339661767737 1572.8173117576036Q5850.339661767737 1594.3005612039499 5840.876801892561 1611.1802571975077Q5831.413942017385 1628.0599531910652 5815.557257902225 1637.7785660358409Q5799.700573787064 1647.4971788806165 5780.774854036712 1647.4971788806165Z M6021.182645460109 1648.0086848198152Q6004.302949466551 1648.0086848198152 5997.141866317768 1635.4767893094468Q5989.980783168987 1622.944893799078 5996.63036037857 1594.3005612039499L6061.591614656807 1315.5298243406487Q6064.149144352801 1306.3227174350718 6061.8473676264075 1302.7421758606808Q6059.545590900013 1299.1616342862899 6052.384507751231 1298.6501283470911L6037.039329575269 1297.115610529495Q6029.366740487289 1296.6041045902962 6030.389752365686 1290.4660333199115Q6031.4127642440835 1285.862479867123 6037.5508355144675 1284.8394679887256Q6055.965049325621 1281.7704323535334 6070.287215623186 1277.4226318703443Q6084.60938192075 1273.0748313871552 6093.304982887128 1265.913748238373Q6097.397030400718 1262.8447126031808 6100.977571975109 1262.8447126031808Q6107.115643245494 1262.8447126031808 6105.581125427897 1270.5173016911617L6029.878246426487 1594.8120671431486Q6027.320716730494 1606.0651978055205 6029.110987517689 1612.4590220455043Q6030.901258304884 1618.8528462854883 6038.573847392865 1618.8528462854883Q6047.780954298442 1618.8528462854883 6058.778331991214 1605.2979388967224Q6069.775709683987 1591.7430315079564 6083.586370042352 1553.8915920072511Q6085.632393799147 1547.242014797668 6090.747453191134 1547.242014797668Q6098.4200422791155 1547.242014797668 6094.839500704724 1556.4491217032448Q6084.097875981551 1591.2315255687577 6071.054474531984 1611.4360101671068Q6058.011073082416 1631.6404947654562 6045.223424602448 1639.8245897926358Q6032.43577612248 1648.0086848198152 6021.182645460109 1648.0086848198152Z M6259.032907187513 1647.4971788806165Q6240.618693376359 1647.4971788806165 6230.388574592385 1631.6404947654564Q6220.1584558084105 1615.7838106502961 6220.1584558084105 1585.093454298373Q6220.1584558084105 1555.937615764046 6228.34255083559 1526.5260242601198Q6236.526645862769 1497.1144327561935 6250.848812160333 1470.51612391786Q6265.170978457898 1443.917815079527 6283.329439299452 1423.4575775115782Q6301.487900141006 1402.9973399436294 6321.6923847393555 1390.9769503724597Q6341.8968693377055 1378.9565608012897 6361.845600966455 1378.9565608012897Q6371.564213811231 1378.9565608012897 6380.259814777609 1382.7928553452803Q6388.955415743987 1386.6291498892706 6394.581981075174 1394.81324491645Q6397.651016710366 1399.4167983692384 6400.720052345558 1399.4167983692384Q6403.78908798075 1399.4167983692384 6406.8581236159425 1394.81324491645Q6412.484688947128 1386.6291498892706 6416.065230521519 1384.3273731628763Q6419.645772095911 1382.025596436482 6422.714807731103 1382.025596436482Q6429.364384940686 1382.025596436482 6427.82986712309 1389.186679585264L6382.305838534404 1585.093454298373Q6374.633249446423 1618.3413403462896 6392.535957318379 1618.3413403462896Q6404.300593919949 1618.3413403462896 6413.763453795125 1602.4846562311295Q6423.226313670301 1586.6279721159692 6432.944926515077 1553.3800860680524Q6434.479444332674 1547.7535207368664 6439.59450372466 1547.7535207368664Q6443.175045299052 1547.7535207368664 6444.198057177449 1550.822556372059Q6445.221069055847 1553.8915920072511 6444.198057177449 1557.9836395208408Q6434.479444332674 1606.0651978055205 6418.111254278314 1626.7811883430686Q6401.743064223955 1647.4971788806165 6378.725296960013 1647.4971788806165Q6358.776565331264 1647.4971788806165 6350.336717334485 1630.617482887059Q6341.8968693377055 1613.7377868935012 6348.546446547289 1584.5819483591742L6355.196023756872 1556.4491217032448Q6356.219035635269 1552.8685801288539 6353.917258908876 1552.3570741896551Q6351.615482182481 1551.8455682504564 6350.0809643648845 1554.9146038856486Q6321.948137708955 1606.576703744719 6300.209135293009 1627.0369413126678Q6278.470132877064 1647.4971788806165 6259.032907187513 1647.4971788806165ZM6271.820555667481 1621.4103759814818Q6284.09669820825 1621.4103759814818 6298.930370445013 1606.576703744719Q6313.764042681776 1591.7430315079564 6328.34196194894 1568.2137583048152Q6342.919881216103 1544.6844851016742 6355.196023756873 1517.574670324142Q6367.472166297642 1490.4648555466101 6374.889002416023 1465.4010645258732Q6382.305838534404 1440.337273505136 6382.305838534404 1422.9460715723794Q6382.305838534404 1391.7442092812576 6360.311083148859 1391.7442092812576Q6347.011928729693 1391.7442092812576 6332.17825649293 1403.7645988524275Q6317.344584256167 1415.7849884235975 6303.789676867401 1436.2452259915462Q6290.234769478635 1456.7054635594948 6279.237391785862 1482.53651348903Q6268.24001409309 1508.3675634185654 6261.590436883507 1536.2446371048954Q6254.940859673923 1564.1217107912255 6254.940859673923 1590.720019629559Q6254.940859673923 1608.622727501514 6259.288660157112 1615.016551741498Q6263.636460640301 1621.4103759814818 6271.820555667481 1621.4103759814818Z M6609.414475538634 1647.4971788806165Q6592.023273605878 1647.4971788806165 6582.304660761102 1633.6865185222512Q6572.586047916327 1619.8758581638858 6579.23562512591 1589.1855018119627L6621.690618079404 1404.020351822027Q6623.225135897 1396.3477627340462 6615.552546809019 1396.3477627340462H6596.115321119468Q6588.954237970685 1396.3477627340462 6588.954237970685 1389.6981855244628Q6588.954237970685 1386.1176439500719 6591.51176766668 1384.0716201932769Q6594.069297362673 1382.025596436482 6597.649838937064 1382.025596436482H6616.064052748217Q6627.828689349788 1382.025596436482 6629.874713106583 1371.283971713309L6642.150855647353 1316.5528362190462Q6643.6853734649485 1310.9262708878603 6649.311938796134 1310.9262708878603H6670.283682303282Q6677.444765452064 1310.9262708878603 6675.910247634468 1317.5758480974437L6663.1225991545 1374.3530073485013Q6661.588081336904 1382.025596436482 6669.260670424885 1382.025596436482H6698.416508959212Q6707.11210992559 1382.025596436482 6707.11210992559 1388.6751736460653Q6707.11210992559 1396.3477627340462 6696.370485202417 1396.3477627340462H6668.7491644856855Q6657.496033823314 1396.3477627340462 6654.93850412732 1407.0893874572191L6611.972005234628 1594.3005612039499Q6609.414475538634 1605.5536918663217 6612.739264143425 1611.9475161063056Q6616.064052748217 1618.3413403462896 6624.248147775397 1618.3413403462896Q6636.012784376968 1618.3413403462896 6645.987150191342 1605.042185927123Q6655.961516005717 1591.7430315079564 6667.21464666809 1554.4030979464499Q6669.260670424885 1547.7535207368664 6673.864223877673 1547.7535207368664Q6677.444765452064 1547.7535207368664 6678.467777330461 1550.822556372059Q6679.490789208859 1553.8915920072511 6676.933259512865 1562.0756870344308Q6667.21464666809 1596.8580908999434 6655.705763036119 1615.2723047110971Q6644.196879404148 1633.6865185222512 6632.432242802577 1640.5918487014337Q6620.6676062010065 1647.4971788806165 6609.414475538634 1647.4971788806165Z M6866.701962955589 1647.4971788806165Q6839.592148178057 1647.4971788806165 6823.223958123698 1626.2696824038699Q6806.855768069339 1605.042185927123 6806.855768069339 1566.1677345480205Q6806.855768069339 1532.408342560905 6818.876157640509 1499.1604565129883Q6830.896547211679 1465.9125704650717 6850.33377290123 1438.8027556875395Q6869.770998590781 1411.6929409100076 6893.044518824323 1395.3247508556487Q6916.318039057865 1378.9565608012897 6938.312794443409 1378.9565608012897Q6962.3535735857495 1378.9565608012897 6972.839445339323 1390.465444433261Q6983.3253170928965 1401.974328065232 6983.3253170928965 1421.4115537547832Q6983.3253170928965 1444.4293210187257 6967.212880008137 1467.1913353130685Q6951.100442923377 1489.9533496074114 6922.20035735865 1507.8560574793664Q6893.300271793923 1525.7587653513217 6854.42582041482 1534.4543663176999Q6843.172689752448 1537.0118960136936 6842.661183813249 1547.242014797668Q6842.14967787405 1550.822556372059 6842.14967787405 1554.6588509160492Q6842.14967787405 1558.4951454600396 6842.14967787405 1562.0756870344308Q6842.14967787405 1591.2315255687577 6852.124043688425 1606.0651978055205Q6862.098409502801 1620.8988700422833 6879.489611435557 1620.8988700422833Q6898.926837125108 1620.8988700422833 6917.085297966663 1602.9961621703283Q6935.2437588082175 1585.093454298373 6947.519901348986 1552.3570741896551Q6949.054419166582 1547.7535207368664 6953.657972619371 1547.7535207368664Q6956.727008254564 1547.7535207368664 6957.494267163362 1550.3110504328602Q6958.2615260721595 1552.8685801288539 6957.238514193762 1556.4491217032448Q6940.870324139403 1601.461644352732 6917.596803905862 1624.4794116166743Q6894.32328367232 1647.4971788806165 6866.701962955589 1647.4971788806165ZM6847.776243205237 1515.0171406281486Q6846.753231326839 1518.5976822025395 6849.055008053234 1520.8994589289339Q6851.356784779628 1523.2012356553282 6854.937326354018 1522.1782237769307Q6886.650694584339 1513.4826228105526 6908.133944030686 1495.8356679081967Q6929.617193477031 1478.188713005841 6940.614571169804 1456.1939576202963Q6951.611948862576 1434.1992022347513 6951.611948862576 1413.2274587276038Q6951.611948862576 1391.7442092812576 6934.732252869018 1391.7442092812576Q6919.898580632255 1391.7442092812576 6902.507378699499 1409.1354112140139Q6885.116176766743 1426.5266131467704 6870.28250452998 1454.6594398027Q6855.4488322932175 1482.7922664586295 6847.776243205237 1515.0171406281486Z"/>
  </g>
</svg>
